<svg width="37" height="38" viewBox="0 0 37 38" fill="none" xmlns="http://www.w3.org/2000/svg">
<path d="M18.5 0.0888673C14.8411 0.0888673 11.2643 1.17387 8.22196 3.20668C5.17965 5.23948 2.80846 8.12879 1.40824 11.5092C0.00801566 14.8897 -0.358346 18.6094 0.355481 22.198C1.06931 25.7867 2.83126 29.0831 5.41853 31.6703C8.0058 34.2576 11.3022 36.0196 14.8908 36.7334C18.4795 37.4472 22.1992 37.0809 25.5796 35.6806C28.9601 34.2804 31.8494 31.9092 33.8822 28.8669C35.915 25.8246 37 22.2478 37 18.5889C37.0002 16.1594 36.5218 13.7536 35.5922 11.509C34.6625 9.26437 33.2999 7.22486 31.5819 5.50694C29.864 3.78902 27.8245 2.42633 25.5799 1.49668C23.3353 0.567045 20.9295 0.0886656 18.5 0.0888673ZM24.3821 28.1209C24.3129 28.2936 24.2075 28.4495 24.0731 28.5781C23.9387 28.7067 23.7783 28.8051 23.6028 28.8667C23.4272 28.9282 23.2406 28.9516 23.0553 28.9351C22.87 28.9187 22.6903 28.8628 22.5284 28.7712L17.5063 24.8689L14.283 27.8426C14.2082 27.8978 14.1207 27.9334 14.0286 27.946C13.9364 27.9586 13.8426 27.9478 13.7557 27.9146L14.3736 22.3859L14.3934 22.4016L14.406 22.2925C14.406 22.2925 23.4433 14.0646 23.8114 13.714C24.1841 13.3644 24.0612 13.2885 24.0612 13.2885C24.0824 12.8621 23.3924 13.2885 23.3924 13.2885L11.4182 20.992L6.43155 19.2937C6.43155 19.2937 5.66565 19.019 5.5935 18.415C5.51765 17.8156 6.45651 17.49 6.45651 17.49L26.283 9.61357C26.283 9.61357 27.9128 8.88741 27.9128 10.09L24.3821 28.1209Z" fill="#87ABFF"/>
</svg>
