<svg width="141" height="142" viewBox="0 0 141 142" fill="none" xmlns="http://www.w3.org/2000/svg">
<path d="M70.5 10.1885C58.5342 10.1885 46.8372 13.7367 36.888 20.3846C26.9389 27.0324 19.1844 36.4812 14.6053 47.5361C10.0262 58.591 8.82811 70.7556 11.1625 82.4914C13.4969 94.2273 19.259 105.007 27.7201 113.468C36.1811 121.929 46.9612 127.692 58.6971 130.026C70.4329 132.36 82.5974 131.162 93.6524 126.583C104.707 122.004 114.156 114.25 120.804 104.3C127.452 94.3513 131 82.6542 131 70.6885C131.001 62.7433 129.436 54.8758 126.396 47.5353C123.356 40.1948 118.9 33.5251 113.281 27.907C107.663 22.289 100.994 17.8326 93.6531 14.7924C86.3126 11.7522 78.4452 10.1878 70.5 10.1885ZM89.736 101.861C89.5096 102.426 89.165 102.935 88.7255 103.356C88.2859 103.776 87.7616 104.098 87.1875 104.3C86.6134 104.501 86.003 104.577 85.397 104.523C84.791 104.47 84.2035 104.287 83.674 103.987L67.2502 91.2257L56.7092 100.951C56.4646 101.131 56.1785 101.248 55.8772 101.289C55.5758 101.33 55.269 101.295 54.9849 101.186L57.0056 83.106L57.0703 83.1573L57.1116 82.8003C57.1116 82.8003 86.6659 55.8929 87.8698 54.7465C89.0887 53.603 88.6866 53.355 88.6866 53.355C88.7559 51.9603 86.4994 53.355 86.4994 53.355L47.3406 78.5474L31.0329 72.9935C31.0329 72.9935 28.5282 72.0951 28.2923 70.1198C28.0442 68.1596 31.1145 67.0948 31.1145 67.0948L95.9524 41.3368C95.9524 41.3368 101.282 38.9621 101.282 42.8948L89.736 101.861Z" fill="#87ABFF"/>
</svg>
