<svg width="141" height="142" viewBox="0 0 141 142" fill="none" xmlns="http://www.w3.org/2000/svg">
<path d="M10.0243 131.188L18.2039 101.132C12.8142 91.8928 9.98251 81.3848 10.0001 70.6884C10.0001 37.2743 37.0859 10.1885 70.5 10.1885C103.914 10.1885 131 37.2743 131 70.6884C131 104.103 103.914 131.188 70.5 131.188C59.8084 131.206 49.3048 128.376 40.0686 122.991L10.0243 131.188ZM48.6656 42.3019C47.8843 42.3504 47.1209 42.5561 46.4211 42.9069C45.7648 43.2785 45.1657 43.7431 44.6424 44.2863C43.9164 44.9699 43.505 45.5628 43.0633 46.1376C40.8273 49.0476 39.6246 52.6196 39.6451 56.2894C39.6572 59.2539 40.4316 62.1398 41.6416 64.8381C44.116 70.2952 48.1877 76.0729 53.5661 81.4272C54.8608 82.7158 56.1252 84.0105 57.4865 85.2145C64.162 91.0918 72.1169 95.3303 80.7185 97.5928L84.1609 98.1191C85.2802 98.1796 86.3994 98.0949 87.5247 98.0405C89.2867 97.9495 91.0072 97.4724 92.5644 96.6429C93.5687 96.1105 94.0406 95.8443 94.8815 95.3119C94.8815 95.3119 95.1417 95.1425 95.6378 94.7674C96.4545 94.1624 96.9567 93.7329 97.6343 93.025C98.1364 92.5047 98.572 91.8937 98.9048 91.1979C99.3767 90.2118 99.8486 88.3302 100.042 86.7633C100.187 85.5654 100.145 84.912 100.127 84.5066C100.103 83.8593 99.5642 83.1877 98.9774 82.9034L95.4563 81.3243C95.4563 81.3243 90.1928 79.0314 86.9802 77.5673C86.6415 77.4196 86.2785 77.3355 85.9094 77.3192C85.4954 77.2767 85.0772 77.3233 84.6827 77.4558C84.2883 77.5883 83.9268 77.8038 83.6225 78.0876V78.0755C83.5922 78.0755 83.1869 78.4203 78.8127 83.7201C78.5617 84.0575 78.2159 84.3124 77.8193 84.4525C77.4228 84.5926 76.9936 84.6114 76.5863 84.5066C76.1921 84.4012 75.806 84.2678 75.4308 84.1073C74.6806 83.7927 74.4204 83.6717 73.9062 83.4479L73.8759 83.4358C70.4148 81.9246 67.2102 79.8835 64.3774 77.3858C63.6151 76.7203 62.9073 75.9943 62.1813 75.2925C59.8011 73.0131 57.7268 70.4344 56.0103 67.6211L55.6533 67.0463C55.397 66.6601 55.1897 66.2435 55.0363 65.8061C54.8064 64.9167 55.4053 64.2028 55.4053 64.2028C55.4053 64.2028 56.8754 62.5935 57.5591 61.7223C58.1283 60.9983 58.6594 60.2451 59.1502 59.4657C59.8641 58.3162 60.088 57.1364 59.7129 56.2229C58.0189 52.0847 56.2644 47.9646 54.4615 43.8749C54.1046 43.0642 53.0458 42.4834 52.0839 42.3684C51.7572 42.3321 51.4305 42.2958 51.1038 42.2716C50.2913 42.2312 49.4771 42.2393 48.6656 42.2958V42.3019Z" fill="#87ABFF"/>
</svg>
