<svg width="37" height="38" viewBox="0 0 37 38" fill="none" xmlns="http://www.w3.org/2000/svg">
<path d="M0.00742475 37.0888L2.50862 27.898C0.860529 25.0728 -0.00534767 21.8596 2.48496e-05 18.5889C2.48496e-05 8.37131 8.28247 0.0888672 18.5 0.0888672C28.7176 0.0888672 37 8.37131 37 18.5889C37 28.8064 28.7176 37.0888 18.5 37.0888C15.2307 37.0941 12.0188 36.2289 9.19452 34.5821L0.00742475 37.0888ZM11.8234 9.90866C11.5845 9.92349 11.351 9.98642 11.137 10.0937C10.9363 10.2073 10.7531 10.3494 10.5931 10.5155C10.3711 10.7245 10.2453 10.9058 10.1103 11.0816C9.42653 11.9714 9.05875 13.0637 9.06502 14.1859C9.06872 15.0924 9.30552 15.9748 9.67552 16.7999C10.4322 18.4686 11.6772 20.2354 13.3219 21.8726C13.7178 22.2667 14.1044 22.6626 14.5207 23.0307C16.5619 24.8279 18.9944 26.124 21.6247 26.8158L22.6773 26.9767C23.0196 26.9952 23.3618 26.9693 23.7059 26.9527C24.2447 26.9249 24.7708 26.779 25.247 26.5254C25.5541 26.3626 25.6984 26.2811 25.9555 26.1183C25.9555 26.1183 26.0351 26.0665 26.1868 25.9518C26.4365 25.7668 26.5901 25.6355 26.7973 25.4191C26.9508 25.26 27.084 25.0731 27.1858 24.8603C27.3301 24.5588 27.4744 23.9834 27.5336 23.5043C27.578 23.138 27.565 22.9382 27.5595 22.8143C27.5521 22.6163 27.3874 22.411 27.208 22.324L26.1313 21.8412C26.1313 21.8412 24.5218 21.14 23.5394 20.6923C23.4358 20.6472 23.3248 20.6214 23.212 20.6165C23.0854 20.6035 22.9575 20.6177 22.8369 20.6582C22.7163 20.6987 22.6057 20.7646 22.5127 20.8514V20.8477C22.5034 20.8477 22.3795 20.9532 21.0419 22.5738C20.9651 22.6769 20.8594 22.7549 20.7381 22.7977C20.6169 22.8405 20.4856 22.8463 20.3611 22.8143C20.2406 22.782 20.1225 22.7412 20.0078 22.6922C19.7784 22.596 19.6988 22.559 19.5416 22.4905L19.5323 22.4868C18.4739 22.0247 17.494 21.4006 16.6278 20.6368C16.3947 20.4333 16.1783 20.2113 15.9563 19.9967C15.2284 19.2997 14.5941 18.5112 14.0693 17.6509L13.9601 17.4752C13.8817 17.3571 13.8183 17.2297 13.7714 17.0959C13.7011 16.824 13.8843 16.6057 13.8843 16.6057C13.8843 16.6057 14.3338 16.1136 14.5429 15.8472C14.7169 15.6258 14.8793 15.3954 15.0294 15.1571C15.2477 14.8056 15.3162 14.4449 15.2015 14.1655C14.6835 12.9001 14.147 11.6403 13.5957 10.3897C13.4865 10.1418 13.1628 9.96416 12.8686 9.92901C12.7687 9.91791 12.6688 9.90681 12.5689 9.89941C12.3205 9.88707 12.0715 9.88954 11.8234 9.90681V9.90866Z" fill="#87ABFF"/>
</svg>
