<svg width="38" height="38" viewBox="0 0 38 38" fill="none" xmlns="http://www.w3.org/2000/svg">
<path d="M18.9629 0.143433C15.3039 0.143433 11.7272 1.22844 8.68485 3.26124C5.64254 5.29405 3.27135 8.18335 1.87113 11.5638C0.470906 14.9442 0.104545 18.6639 0.818371 22.2526C1.5322 25.8412 3.29415 29.1376 5.88142 31.7249C8.46869 34.3122 11.7651 36.0741 15.3537 36.788C18.9424 37.5018 22.6621 37.1354 26.0425 35.7352C29.423 34.335 32.3123 31.9638 34.3451 28.9215C36.3779 25.8792 37.4629 22.3024 37.4629 18.6434C37.4631 16.2139 36.9847 13.8082 36.0551 11.5635C35.1254 9.31893 33.7627 7.27943 32.0448 5.56151C30.3269 3.84358 28.2874 2.48089 26.0428 1.55125C23.7982 0.62161 21.3924 0.143231 18.9629 0.143433ZM24.845 28.1755C24.7757 28.3482 24.6704 28.504 24.536 28.6326C24.4016 28.7612 24.2412 28.8596 24.0657 28.9212C23.8901 28.9828 23.7035 29.0061 23.5182 28.9897C23.3329 28.9732 23.1532 28.9173 22.9913 28.8258L17.9692 24.9234L14.7459 27.8971C14.6711 27.9524 14.5836 27.9879 14.4914 28.0005C14.3993 28.0131 14.3055 28.0023 14.2186 27.9692L14.8365 22.4405L14.8563 22.4562L14.8689 22.3471C14.8689 22.3471 23.9062 14.1192 24.2743 13.7686C24.647 13.419 24.5241 13.3431 24.5241 13.3431C24.5453 12.9166 23.8553 13.3431 23.8553 13.3431L11.8811 21.0466L6.89444 19.3483C6.89444 19.3483 6.12854 19.0736 6.05639 18.4695C5.98054 17.8701 6.9194 17.5445 6.9194 17.5445L26.7458 9.66814C26.7458 9.66814 28.3757 8.94198 28.3757 10.1445L24.845 28.1755Z" fill="#87ABFF"/>
</svg>
