<svg width="38" height="37" viewBox="0 0 38 37" fill="none" xmlns="http://www.w3.org/2000/svg">
<path d="M0.202249 37L2.70345 27.8092C1.05535 24.984 0.189477 21.7708 0.194849 18.5C0.194849 8.28244 8.47729 0 18.6948 0C28.9124 0 37.1948 8.28244 37.1948 18.5C37.1948 28.7175 28.9124 37 18.6948 37C15.4255 37.0053 12.2137 36.14 9.38934 34.4932L0.202249 37ZM12.0182 9.81979C11.7793 9.83463 11.5458 9.89755 11.3318 10.0048C11.1312 10.1184 10.948 10.2605 10.7879 10.4266C10.5659 10.6356 10.4401 10.8169 10.3051 10.9927C9.62135 11.8825 9.25357 12.9748 9.25984 14.097C9.26354 15.0035 9.50034 15.8859 9.87034 16.711C10.627 18.3797 11.872 20.1465 13.5167 21.7837C13.9126 22.1778 14.2992 22.5737 14.7155 22.9418C16.7568 24.739 19.1893 26.0351 21.8195 26.7269L22.8721 26.8879C23.2144 26.9064 23.5566 26.8805 23.9007 26.8638C24.4395 26.836 24.9656 26.6901 25.4418 26.4365C25.7489 26.2737 25.8932 26.1923 26.1503 26.0295C26.1503 26.0295 26.2299 25.9777 26.3816 25.863C26.6313 25.678 26.7849 25.5466 26.9921 25.3302C27.1456 25.1711 27.2788 24.9842 27.3806 24.7715C27.5249 24.4699 27.6692 23.8946 27.7284 23.4154C27.7728 23.0491 27.7598 22.8493 27.7543 22.7254C27.7469 22.5274 27.5822 22.3221 27.4028 22.2351L26.3261 21.7523C26.3261 21.7523 24.7166 21.0511 23.7342 20.6034C23.6307 20.5583 23.5197 20.5326 23.4068 20.5276C23.2802 20.5146 23.1523 20.5288 23.0317 20.5694C22.9111 20.6099 22.8005 20.6757 22.7075 20.7625V20.7588C22.6982 20.7588 22.5743 20.8643 21.2367 22.4849C21.16 22.588 21.0542 22.666 20.933 22.7088C20.8117 22.7517 20.6805 22.7574 20.5559 22.7254C20.4354 22.6932 20.3173 22.6523 20.2026 22.6033C19.9732 22.5071 19.8936 22.4701 19.7364 22.4016L19.7271 22.3979C18.6688 21.9359 17.6889 21.3117 16.8226 20.5479C16.5895 20.3444 16.3731 20.1224 16.1511 19.9078C15.4233 19.2108 14.789 18.4223 14.2641 17.562L14.1549 17.3863C14.0765 17.2682 14.0132 17.1408 13.9662 17.007C13.8959 16.7351 14.0791 16.5168 14.0791 16.5168C14.0791 16.5168 14.5286 16.0247 14.7377 15.7583C14.9118 15.5369 15.0742 15.3066 15.2242 15.0682C15.4425 14.7167 15.511 14.356 15.3963 14.0766C14.8783 12.8112 14.3418 11.5514 13.7905 10.3008C13.6813 10.0529 13.3576 9.87529 13.0634 9.84014C12.9635 9.82904 12.8636 9.81794 12.7637 9.81054C12.5153 9.7982 12.2663 9.80067 12.0182 9.81794V9.81979Z" fill="#87ABFF"/>
</svg>
